<svg width="36" height="25" viewBox="0 0 36 25" fill="none" xmlns="http://www.w3.org/2000/svg">
<rect x="0.389108" y="0.389108" width="35.0197" height="24.1247" rx="4.28018" fill="white"/>
<rect x="0.389108" y="0.389108" width="35.0197" height="24.1247" rx="4.28018" stroke="#F2F4F7" stroke-width="0.778215"/>
<path fill-rule="evenodd" clip-rule="evenodd" d="M11.1546 16.4555H9.01734L7.41468 10.1615C7.33861 9.87195 7.17709 9.61599 6.93951 9.49535C6.34659 9.19219 5.69323 8.95091 4.98047 8.82923V8.58691H8.42338C8.89855 8.58691 9.25493 8.95091 9.31432 9.37367L10.1459 13.9138L12.2821 8.58691H14.3599L11.1546 16.4555ZM15.5479 16.4555H13.5294L15.1915 8.58691H17.2099L15.5479 16.4555ZM19.8213 10.7666C19.8807 10.3428 20.2371 10.1005 20.6529 10.1005C21.3062 10.0396 22.0179 10.1613 22.6119 10.4634L22.9683 8.76928C22.3743 8.52696 21.721 8.40527 21.128 8.40527C19.169 8.40527 17.7435 9.4952 17.7435 11.0079C17.7435 12.1586 18.7532 12.7629 19.466 13.1269C20.2371 13.4898 20.5341 13.7322 20.4747 14.0951C20.4747 14.6396 19.8807 14.8819 19.2878 14.8819C18.575 14.8819 17.8623 14.7004 17.2099 14.3972L16.8536 16.0924C17.5663 16.3946 18.3374 16.5162 19.0502 16.5162C21.2468 16.576 22.6119 15.4872 22.6119 13.8528C22.6119 11.7946 19.8213 11.674 19.8213 10.7666V10.7666ZM29.6758 16.4555L28.0732 8.58691H26.3517C25.9953 8.58691 25.639 8.82923 25.5202 9.19219L22.5524 16.4555H24.6303L25.045 15.3058H27.598L27.8356 16.4555H29.6758ZM26.6488 10.7057L27.2417 13.6713H25.5796L26.6488 10.7057Z" fill="#172B85"/>
</svg>
