<svg width="37" height="25" viewBox="0 0 37 25" fill="none" xmlns="http://www.w3.org/2000/svg">
<rect x="1.18696" y="0.389108" width="35.0197" height="24.1247" rx="4.28018" fill="white"/>
<rect x="1.18696" y="0.389108" width="35.0197" height="24.1247" rx="4.28018" stroke="#F2F4F7" stroke-width="0.778215"/>
<path fill-rule="evenodd" clip-rule="evenodd" d="M18.6232 17.4641C17.3946 18.4997 15.8009 19.1248 14.0595 19.1248C10.1737 19.1248 7.02368 16.0123 7.02368 12.1728C7.02368 8.33324 10.1737 5.2207 14.0595 5.2207C15.8009 5.2207 17.3946 5.84587 18.6232 6.88146C19.8518 5.84587 21.4455 5.2207 23.187 5.2207C27.0727 5.2207 30.2227 8.33324 30.2227 12.1728C30.2227 16.0123 27.0727 19.1248 23.187 19.1248C21.4455 19.1248 19.8518 18.4997 18.6232 17.4641Z" fill="#ED0006"/>
<path fill-rule="evenodd" clip-rule="evenodd" d="M18.6233 17.4641C20.1361 16.1889 21.0953 14.2915 21.0953 12.1728C21.0953 10.054 20.1361 8.15659 18.6233 6.88146C19.8519 5.84587 21.4456 5.2207 23.187 5.2207C27.0728 5.2207 30.2228 8.33324 30.2228 12.1728C30.2228 16.0123 27.0728 19.1248 23.187 19.1248C21.4456 19.1248 19.8519 18.4997 18.6233 17.4641Z" fill="#F9A000"/>
<path fill-rule="evenodd" clip-rule="evenodd" d="M18.6231 17.4634C20.1359 16.1883 21.0951 14.2909 21.0951 12.1721C21.0951 10.0534 20.1359 8.15599 18.6231 6.88086C17.1104 8.15599 16.1511 10.0534 16.1511 12.1721C16.1511 14.2909 17.1104 16.1883 18.6231 17.4634Z" fill="#FF5E00"/>
</svg>
